<?xml version="1.0"?>
<svg version="1.1" xmlns="http://www.w3.org/2000/svg" width="400px" height="200px" style="border: dashed 2px #aaa"><path fill="#186ca8" d="M52.978515625,115.478515625q0-2.880859375,0.3173828125-6.982421875t1.171875-8.544921875t2.294921875-8.837890625t3.6865234375-7.763671875t5.37109375-5.322265625q2.587890625-1.611328125,5.95703125-1.611328125q0.68359375,0,1.416015625,0.09765625q8.49609375,0.78125,13.0615234375,3.8818359375t6.6650390625,7.861328125t2.44140625,10.83984375t0.341796875,12.8173828125q0,5.419921875-1.0009765625,11.7919921875t-3.5400390625,11.8896484375t-7.0068359375,9.2041015625t-11.3525390625,3.6865234375q-4.19921875,0-7.3486328125-1.5380859375t-5.3466796875-4.1015625t-3.61328125-5.95703125t-2.1484375-7.03125t-1.0498046875-7.3486328125t-0.3173828125-7.03125z M62.890625,113.28125q0,2.099609375,0.048828125,5.1513671875t0.4150390625,6.4208984375t0.9521484375,6.7138671875t1.7333984375,6.0791015625t2.9052734375,4.4921875t4.248046875,1.85546875l0.244140625,0q2.24609375,0,4.00390625-1.708984375q1.85546875-1.806640625,3.2958984375-4.345703125t2.490234375-5.3466796875t1.8798828125-4.8095703125l-0.1953125,0.439453125q1.416015625-4.4921875,1.904296875-9.2041015625t0.48828125-9.3017578125q0-2.197265625-0.29296875-5.2978515625t-0.9521484375-6.4697265625t-1.708984375-6.6650390625t-2.6611328125-5.7373046875t-3.759765625-3.7109375q-1.5625-0.927734375-3.466796875-0.9765625q-0.732421875,0-1.46484375,0.146484375q-2.490234375,0.48828125-4.248046875,2.44140625t-2.8564453125,4.8095703125t-1.6845703125,6.25t-0.9033203125,6.8359375t-0.3662109375,6.591796875t-0.048828125,5.3466796875z M84.912109375,128.3203125l0-0.09765625l0,0.09765625z M105.79443359375,134.423828125q0-10.595703125,0.9521484375-21.2158203125t3.9794921875-20.9228515625q0.87890625-3.076171875,2.294921875-6.0791015625t3.466796875-5.3466796875t4.8828125-3.80859375t6.73828125-1.46484375l1.025390625,0.09765625q4.19921875,0.5859375,6.201171875,3.3935546875t2.001953125,7.0068359375q0,1.123046875-0.2685546875,2.8076171875t-0.8544921875,3.2470703125t-1.5869140625,2.6611328125t-2.5146484375,1.0986328125q-0.68359375-0.09765625-1.2451171875-0.244140625t-1.0498046875-0.634765625q0.78125-1.708984375,1.3916015625-3.564453125t0.6103515625-4.248046875q0-0.87890625-0.146484375-2.24609375t-0.5615234375-2.7099609375t-1.0986328125-2.34375t-1.904296875-1.0009765625q-3.076171875,0-5.17578125,3.4423828125t-3.515625,8.7890625t-2.099609375,11.81640625t-1.0498046875,12.5t-0.4150390625,10.888671875t-0.048828125,6.8603515625q0,2.34375-0.048828125,5.17578125l0,0.634765625q0.048828125,2.490234375,0.341796875,4.736328125q0.390625,2.5390625,1.513671875,4.39453125t3.515625,2.1484375q0.732421875,0.09765625,1.416015625,0.09765625q2.83203125,0,5.126953125-1.611328125q2.83203125-2.001953125,5.029296875-5.2001953125t3.90625-7.03125t3.1494140625-7.2509765625t2.8076171875-5.6640625t2.83203125-2.24609375q0.48828125,0,1.46484375,0.1953125t0.9765625,0.927734375q0,0.1953125-0.09765625,0.537109375t-0.244140625,0.537109375q-1.318359375,5.17578125-3.3447265625,10.7421875t-5.17578125,10.1318359375t-7.71484375,7.4462890625t-10.9619140625,2.880859375q-4.58984375,0-7.4462890625-1.7333984375t-4.39453125-4.638671875t-2.099609375-6.5673828125t-0.5615234375-7.421875z M157.5361328125,148.876953125q0-0.29296875,0.1953125-2.0751953125t0.5126953125-4.345703125t0.7080078125-5.517578125t0.68359375-5.5908203125t0.5126953125-4.638671875t0.2197265625-2.685546875q-0.390625-0.1953125-0.9521484375-0.5615234375t-0.5615234375-0.8544921875q0-0.68359375,0.6591796875-1.0986328125t1.1474609375-0.6103515625q0.1953125-2.490234375,0.48828125-6.93359375t0.9033203125-9.5947265625t1.708984375-10.44921875t2.9052734375-9.619140625t4.345703125-7.0556640625t6.25-2.734375t6.15234375,2.34375t3.9794921875,6.103515625t2.34375,8.349609375t1.220703125,9.130859375t0.5126953125,8.49609375t0.1953125,6.34765625q0.09765625,1.513671875,0.732421875,2.0263671875t1.3916015625,0.7080078125t1.3671875,0.439453125t0.6103515625,1.220703125q0,1.123046875-1.3671875,1.5625t-2.1484375,0.537109375q0.48828125,6.103515625,1.3427734375,12.01171875t2.2705078125,11.9140625q0.1953125,1.123046875,0.537109375,2.2705078125t0.341796875,2.2216796875q0,0.78125-0.537109375,1.2939453125t-1.3916015625,0.8056640625t-1.708984375,0.390625t-1.4404296875,0.09765625q-2.197265625,0-3.7109375-0.830078125t-2.001953125-3.173828125q-1.318359375-6.298828125-2.587890625-13.232421875q-1.07421875-6.005859375-1.07421875-11.669921875q0-0.87890625,0.048828125-1.7578125q-4.1015625,0-8.251953125,0.1953125t-7.958984375,1.46484375q-0.09765625,1.318359375-0.48828125,4.98046875t-0.87890625,7.861328125t-1.0009765625,8.0322265625t-0.6103515625,5.4443359375q-0.09765625,0.68359375-1.0009765625,1.2939453125t-1.953125,0.6591796875t-1.85546875-0.6591796875t-0.8056640625-2.5146484375z M166.6669921875,119.287109375q3.80859375-0.87890625,7.6416015625-1.025390625t7.7392578125-0.341796875q-0.1953125-1.220703125-0.09765625-2.5146484375t0.09765625-2.6123046875q0-2.880859375-0.146484375-6.689453125t-0.439453125-7.71484375t-0.7568359375-7.6904296875t-1.0498046875-6.73828125t-1.2451171875-4.7119140625t-1.4404296875-1.7578125q-1.513671875,0.09765625-2.8564453125,2.6123046875t-2.44140625,6.396484375t-2.001953125,8.69140625t-1.513671875,9.3994140625t-1.0009765625,8.544921875t-0.48828125,6.15234375z M206.73876953125,82.080078125q0-3.41796875,1.171875-4.58984375t3.271484375-1.171875q0.5859375,0,1.2451171875,0.09765625t1.2451171875,0.29296875q3.271484375-0.634765625,6.201171875-0.634765625q4.736328125,0,8.59375,1.66015625q6.201171875,2.63671875,10.25390625,7.8125t5.95703125,12.158203125t1.904296875,14.306640625q0,4.1015625-0.5615234375,8.544921875t-2.1728515625,8.251953125q-1.416015625,3.41796875-3.90625,7.1533203125t-5.6396484375,7.080078125t-6.787109375,5.859375t-7.3486328125,3.3935546875l0,0.390625q0,0.9765625-0.5126953125,1.5869140625t-1.2451171875,0.927734375t-1.6845703125,0.4150390625t-1.7822265625,0.09765625q-0.48828125,0-1.3916015625-0.09765625t-1.7578125-0.3662109375t-1.4404296875-0.7080078125t-0.5859375-1.220703125q0-8.88671875-0.4638671875-17.7978515625t-1.0498046875-17.822265625t-1.0498046875-17.7978515625t-0.4638671875-17.822265625z M215.96728515625,79.58984375q0.48828125,4.6875,0.634765625,9.3505859375t0.439453125,9.3505859375q0.78125,12.109375,1.806640625,24.0966796875t1.220703125,24.0966796875q4.6875-3.076171875,8.0322265625-7.03125t5.4931640625-8.59375t3.1494140625-9.7412109375t1.0009765625-10.5224609375q0-3.90625-0.68359375-8.59375t-2.34375-9.033203125t-4.4677734375-7.861328125t-7.0068359375-5.029296875q-0.87890625-0.29296875-2.1240234375-0.48828125t-3.9794921875-0.1953125q-0.29296875,0-0.5859375,0.09765625t-0.5859375,0.09765625z"/><path fill="#" d=""/></svg>
